<?xml version="1.0" encoding="UTF-8" standalone="no"?>
<svg
   xmlns:dc="http://purl.org/dc/elements/1.1/"
   xmlns:cc="http://creativecommons.org/ns#"
   xmlns:rdf="http://www.w3.org/1999/02/22-rdf-syntax-ns#"
   xmlns:svg="http://www.w3.org/2000/svg"
   xmlns="http://www.w3.org/2000/svg"
   xmlns:sodipodi="http://sodipodi.sourceforge.net/DTD/sodipodi-0.dtd"
   xmlns:inkscape="http://www.inkscape.org/namespaces/inkscape"
   width="46"
   height="46"
   viewBox="0 0 3.68 3.6798464"
   version="1.1"
   id="svg5155"
   sodipodi:docname="yahoo-logo.svg"
   inkscape:version="0.92.4 (5da689c313, 2019-01-14)">
  <metadata
     id="metadata5161">
    <rdf:RDF>
      <cc:Work
         rdf:about="">
        <dc:format>image/svg+xml</dc:format>
        <dc:type
           rdf:resource="http://purl.org/dc/dcmitype/StillImage" />
        <dc:title></dc:title>
      </cc:Work>
    </rdf:RDF>
  </metadata>
  <defs
     id="defs5159" />
  <sodipodi:namedview
     pagecolor="#ffffff"
     bordercolor="#666666"
     borderopacity="1"
     objecttolerance="10"
     gridtolerance="10"
     guidetolerance="10"
     inkscape:pageopacity="0"
     inkscape:pageshadow="2"
     inkscape:window-width="1274"
     inkscape:window-height="727"
     id="namedview5157"
     showgrid="false"
     inkscape:zoom="7.2704"
     inkscape:cx="-0.011524678"
     inkscape:cy="19.343174"
     inkscape:window-x="2"
     inkscape:window-y="1"
     inkscape:window-maximized="0"
     inkscape:current-layer="svg5155" />
  <g
     id="g5153"
     transform="matrix(0.00907055,0,0,0.01001704,0.97931339,0.97597995)"
     style="stroke-width:104.90914154">
    <path
       d="m 74.176,0.001 c 42.051,0 74.176,31.115 74.176,71.865 0,40.75 -32.125,71.877 -74.176,71.877 C 32.125,143.743 0,112.615 0,71.866 0,31.116 32.125,0 74.176,0 Z M 0,0.001 Z m 148.364,143.754 z"
       id="path5147"
       inkscape:connector-curvature="0"
       style="fill:#6b0094;stroke-width:104.90914154" />
    <path
       d="m 70.99,47.222 c 0.17,-2.494 0.352,-4.975 0.705,-7.457 H 15.266 v 7.457 c 5.668,0.352 11.179,0.888 16.86,1.24 10.643,12.955 21.286,25.91 32.112,39.035 v 20.058 c -6.033,0.535 -12.066,0.887 -18.1,1.423 v 6.556 h 55.724 v -6.556 c -6.034,-0.365 -12.067,-0.535 -18.1,-0.717 0.182,-7.092 0.352,-14.366 0.535,-21.47 10.46,-9.233 20.764,-18.452 31.055,-27.685 5.315,-0.353 10.642,-0.705 16.14,-1.24 v -8.698 c -15.788,0.182 -31.407,0.353 -47.195,0.705 v 7.287 c 5.85,0.352 11.714,0.523 17.565,0.705 -7.627,6.569 -15.266,12.955 -22.893,19.523 -7.81,-9.585 -15.618,-19.34 -23.428,-28.926 5.146,-0.535 10.29,-0.888 15.448,-1.24 z"
       id="path5149"
       inkscape:connector-curvature="0"
       style="fill:#ffffff;stroke-width:104.90914154" />
    <path
       d="m 200,7.116 c -14.377,-0.717 -28.573,-1.422 -42.768,-2.14 -0.718,33.901 -1.423,67.972 -2.128,101.873 6.738,0.706 13.66,1.412 20.398,2.129 8.163,-34.07 16.336,-67.972 24.499,-101.862 z m -46.855,136.456 h 24.486 v -20.4 c -8.867,-0.716 -17.735,-1.422 -26.615,-2.127 0.705,7.626 1.424,15.083 2.129,22.527 z"
       id="path5151"
       inkscape:connector-curvature="0"
       style="fill:#6b0094;stroke-width:104.90914154" />
  </g>
</svg>
