<?xml version="1.0" standalone="no"?>
<!DOCTYPE svg PUBLIC "-//W3C//DTD SVG 20010904//EN"
 "http://www.w3.org/TR/2001/REC-SVG-20010904/DTD/svg10.dtd">
<svg version="1.0" xmlns="http://www.w3.org/2000/svg"
 width="250.000000pt" height="250.000000pt" viewBox="0 0 250.000000 250.000000"
 preserveAspectRatio="xMidYMid meet">
<metadata>
Created by potrace 1.11, written by Peter Selinger 2001-2013
</metadata>
<g transform="translate(0.000000,250.000000) scale(0.100000,-0.100000)"
fill="#000000" stroke="none">
<path d="M135 2481 c-51 -23 -93 -65 -116 -116 -18 -38 -18 -91 -16 -1125 2
-1014 3 -1087 20 -1117 24 -44 64 -81 112 -104 38 -18 86 -18 1111 -19 1184 0
1111 -4 1183 63 18 18 42 50 52 72 17 38 18 91 19 1105 0 665 -4 1078 -10
1099 -15 52 -48 95 -99 127 l-46 29 -1085 2 c-1025 2 -1087 1 -1125 -16z"/>
</g>
</svg>
