<?xml version="1.0" ?><svg height="100px" id="Layer_1" style="enable-background:new 0 0 100 100;" version="1.1" viewBox="0 0 100 100" width="100px" xml:space="preserve" xmlns="http://www.w3.org/2000/svg" xmlns:xlink="http://www.w3.org/1999/xlink"><style type="text/css">
	.st0{fill:#434A53;}
</style><g><path class="st0" d="M93.2649,95H6.73686C5.7778,95,5,94.22572,5,93.2649s0.7778-1.7351,1.73686-1.7351H93.2649   c0.96082,0,1.7351,0.77428,1.7351,1.7351S94.22572,95,93.2649,95z"/><path class="st0" d="M61.4946,95c-0.96082,0-1.7351-0.77428-1.7351-1.7351V6.73686C59.7595,5.7778,60.53379,5,61.4946,5h10.82943   c0.96082,0,1.7351,0.7778,1.7351,1.73686v18.38925c0,0.95906-0.77428,1.73686-1.7351,1.73686s-1.7351-0.77781-1.7351-1.73686   V8.47372h-7.35922V93.2649C63.22971,94.22572,62.45542,95,61.4946,95z"/><path class="st0" d="M87.1375,95H72.32403c-0.96082,0-1.7351-0.77428-1.7351-1.7351V31.45941   c0-0.95905,0.77428-1.73686,1.7351-1.73686H87.1375c0.96082,0,1.7351,0.77781,1.7351,1.73686V93.2649   C88.8726,94.22572,88.09831,95,87.1375,95z M74.05913,91.5298h11.34326V33.19627H74.05913V91.5298z"/><path class="st0" d="M46.68114,95c-0.96082,0-1.7351-0.77428-1.7351-1.7351V26.35265c0-0.95906,0.77428-1.73686,1.7351-1.73686   h9.19638c0.96082,0,1.7351,0.7778,1.7351,1.73686s-0.77428,1.73686-1.7351,1.73686h-7.46128V93.2649   C48.41624,94.22572,47.64195,95,46.68114,95z"/><path class="st0" d="M37.3862,95c-0.96082,0-1.7351-0.77428-1.7351-1.7351V39.83752c0-0.95906,0.77428-1.73686,1.7351-1.73686   h9.29493c0.96082,0,1.7351,0.7778,1.7351,1.73686s-0.77428,1.73686-1.7351,1.73686H39.1213V93.2649   C39.1213,94.22572,38.34702,95,37.3862,95z"/><path class="st0" d="M27.47536,95c-0.08799,0-0.17597-0.00352-0.26044-0.0176l-14.7114-2.24542   c-0.94674-0.14429-1.59784-1.02769-1.4553-1.97443l9.19463-61.0928c0.1443-0.94674,1.03824-1.60488,1.96739-1.46058   l14.7114,2.14512c0.45753,0.06687,0.86931,0.31323,1.14383,0.68454c0.27452,0.3713,0.39066,0.83587,0.32379,1.29341   l-9.19639,61.18958c-0.07039,0.45753-0.31675,0.86579-0.6863,1.14031C28.2039,94.88386,27.84491,95,27.47536,95z    M14.74015,89.56593l11.27816,1.72102l8.6755-57.74578l-11.27288-1.64536L14.74015,89.56593z"/><path class="st0" d="M72.32403,15.82942H66.4993c-0.96082,0-1.7351-0.7778-1.7351-1.73686s0.77428-1.73686,1.7351-1.73686h5.82473   c0.96082,0,1.7351,0.7778,1.7351,1.73686S73.28484,15.82942,72.32403,15.82942z"/><path class="st0" d="M72.32403,87.64429H66.4993c-0.96082,0-1.7351-0.77428-1.7351-1.7351s0.77428-1.7351,1.7351-1.7351h5.82473   c0.96082,0,1.7351,0.77428,1.7351,1.7351S73.28484,87.64429,72.32403,87.64429z"/><path class="st0" d="M82.02721,56.38609h-4.59643c-0.96082,0-1.7351-0.7778-1.7351-1.73686V39.1213   c0-0.95906,0.77428-1.73686,1.7351-1.73686h4.59643c0.96082,0,1.73511,0.7778,1.73511,1.73686s-0.77428,1.73686-1.73511,1.73686   h-2.86133v12.0542h2.86133c0.96082,0,1.73511,0.77781,1.73511,1.73686S82.98804,56.38609,82.02721,56.38609z"/><path class="st0" d="M81.31277,62.41495H78.2473c-0.96082,0-1.7351-0.77781-1.7351-1.73686s0.77428-1.73686,1.7351-1.73686h3.06547   c0.96082,0,1.7351,0.77781,1.7351,1.73686S82.27358,62.41495,81.31277,62.41495z"/><path class="st0" d="M81.31277,68.43853H78.2473c-0.96082,0-1.7351-0.77428-1.7351-1.73511c0-0.96082,0.77428-1.7351,1.7351-1.7351   h3.06547c0.96082,0,1.7351,0.77428,1.7351,1.7351C83.04787,67.66425,82.27358,68.43853,81.31277,68.43853z"/><path class="st0" d="M24.71962,76.92398c-0.08799,0-0.17949-0.00704-0.26748-0.02112l-3.98405-0.61591   c-0.95026-0.14782-1.59784-1.03473-1.45354-1.98147c0.14782-0.95026,1.03824-1.60488,1.98146-1.45354l3.98405,0.61591   c0.95026,0.14782,1.59784,1.03472,1.45354,1.98146C26.29986,76.30807,25.56077,76.92398,24.71962,76.92398z"/><path class="st0" d="M24.00516,81.72454c-0.08799,0-0.17949-0.00703-0.26748-0.02112l-3.98405-0.61239   c-0.94674-0.14781-1.59784-1.03472-1.45354-1.98146c0.14782-0.95026,1.04528-1.61544,1.98146-1.45354l3.98405,0.61239   c0.94674,0.14782,1.59784,1.03473,1.45354,1.98147C25.58541,81.10863,24.84632,81.72454,24.00516,81.72454z"/><path class="st0" d="M23.29071,86.52511c-0.08799,0-0.17949-0.00704-0.26748-0.02112l-3.98405-0.61239   c-0.94674-0.14782-1.59784-1.03473-1.45354-1.98147c0.14782-0.95026,1.03473-1.61896,1.98146-1.45354l3.98405,0.61239   c0.94674,0.14781,1.59784,1.03472,1.45354,1.98146C24.87095,85.90919,24.13186,86.52511,23.29071,86.52511z"/><path class="st0" d="M54.03684,67.82614c-0.96082,0-1.7351-0.77428-1.7351-1.73511V44.43395   c0-0.95906,0.77428-1.73686,1.7351-1.73686c0.96082,0,1.7351,0.77781,1.7351,1.73686v21.65708   C55.77194,67.05186,54.99765,67.82614,54.03684,67.82614z"/><path class="st0" d="M55.97959,78.04317h-3.77991c-0.96082,0-1.7351-0.77428-1.7351-1.7351   c0-0.96082,0.77428-1.73511,1.7351-1.73511h3.77991c0.96082,0,1.7351,0.77428,1.7351,1.73511   C57.71469,77.26889,56.9404,78.04317,55.97959,78.04317z"/><path class="st0" d="M55.97959,83.86438h-3.77991c-0.96082,0-1.7351-0.77428-1.7351-1.7351s0.77428-1.7351,1.7351-1.7351h3.77991   c0.96082,0,1.7351,0.77428,1.7351,1.7351S56.9404,83.86438,55.97959,83.86438z"/></g></svg>