<?xml version="1.0" encoding="UTF-8" standalone="no"?>
<!-- Created with Inkscape (http://www.inkscape.org/) -->

<svg
   xmlns:dc="http://purl.org/dc/elements/1.1/"
   xmlns:cc="http://creativecommons.org/ns#"
   xmlns:rdf="http://www.w3.org/1999/02/22-rdf-syntax-ns#"
   xmlns:svg="http://www.w3.org/2000/svg"
   xmlns="http://www.w3.org/2000/svg"
   xmlns:sodipodi="http://sodipodi.sourceforge.net/DTD/sodipodi-0.dtd"
   xmlns:inkscape="http://www.inkscape.org/namespaces/inkscape"
   id="svg3347"
   version="1.1"
   inkscape:version="0.48.2 r9819"
   xml:space="preserve"
   width="240.95"
   height="240.95"
   viewBox="0 0 240.95 240.95"
   sodipodi:docname="user_logo_vector.svg"
   inkscape:export-filename="C:\temp\a.png"
   inkscape:export-xdpi="747.06"
   inkscape:export-ydpi="747.06"><metadata
     id="metadata3353"><rdf:RDF><cc:Work
         rdf:about=""><dc:format>image/svg+xml</dc:format><dc:type
           rdf:resource="http://purl.org/dc/dcmitype/StillImage" /><dc:title></dc:title></cc:Work></rdf:RDF></metadata><defs
     id="defs3351"><radialGradient
       fx="0"
       fy="0"
       cx="0"
       cy="0"
       r="1"
       gradientUnits="userSpaceOnUse"
       gradientTransform="matrix(96.37793,0,0,-96.37793,96.381836,96.37793)"
       spreadMethod="pad"
       id="radialGradient3369"><stop
         style="stop-opacity:1;stop-color:#47b900"
         offset="0"
         id="stop3371" /><stop
         style="stop-opacity:1;stop-color:#47b900"
         offset="0.26598501"
         id="stop3373" /><stop
         style="stop-opacity:1;stop-color:#325906"
         offset="1"
         id="stop3375" /></radialGradient><clipPath
       clipPathUnits="userSpaceOnUse"
       id="clipPath3383"><path
         d="m 0,192.76 192.76,0 L 192.76,0 0,0 0,192.76 Z"
         id="path3385"
         inkscape:connector-curvature="0" /></clipPath></defs><sodipodi:namedview
     pagecolor="#ffffff"
     bordercolor="#666666"
     borderopacity="1"
     objecttolerance="10"
     gridtolerance="10"
     guidetolerance="10"
     inkscape:pageopacity="0"
     inkscape:pageshadow="2"
     inkscape:window-width="1920"
     inkscape:window-height="1017"
     id="namedview3349"
     showgrid="false"
     inkscape:zoom="1.9589127"
     inkscape:cx="-33.181674"
     inkscape:cy="120.475"
     inkscape:window-x="-8"
     inkscape:window-y="-8"
     inkscape:window-maximized="1"
     inkscape:current-layer="g3355" /><g
     id="g3355"
     inkscape:groupmode="layer"
     inkscape:label="freegle logo rgb"
     transform="matrix(1.25,0,0,-1.25,0,240.95)"><path
       style="fill:#47b900;fill-opacity:1;stroke:#ffffff;stroke-width:0.51048726"
       d="M 96.226849,209.67527 C 83.823132,203.67494 71.015874,194.03649 59.603855,182.11364 35.339786,156.76347 20.283493,127.93838 15.5146,97.705289 14.327155,90.177312 14.326582,75.136264 15.5135,68.456344 c 2.909033,-16.3721 10.841464,-29.24893 22.147435,-35.952255 14.563354,-8.634631 32.321405,-8.004305 50.538654,1.793881 4.220974,2.270261 4.224772,2.271169 4.65861,1.11392 0.238801,-0.637006 1.553882,-4.655876 2.922402,-8.930822 1.368514,-4.274945 2.614052,-7.778164 2.767856,-7.784931 0.355677,-0.01565 17.380283,35.290869 17.347933,35.977051 -0.0184,0.390276 -35.239388,15.746669 -35.239388,15.364416 0,-0.04653 1.263456,-3.859301 2.80768,-8.472838 1.544224,-4.613537 2.80768,-8.663143 2.80768,-8.999125 0,-0.957793 -8.916636,-4.10293 -15.825106,-5.58194 -4.46929,-0.956814 -12.978224,-1.098437 -16.482638,-0.274337 -6.369476,1.497849 -11.426121,5.52907 -14.301895,11.40165 -2.844649,5.80902 -3.456793,8.820503 -3.763164,18.513126 -0.503027,15.914247 1.739608,26.59039 9.919067,47.22007 7.772448,19.60315 18.373403,40.20486 29.157454,56.66409 7.832814,11.95489 19.66084,25.62688 25.87044,29.9036 1.53033,1.05398 2.7824,1.99299 2.7824,2.08671 0,0.55665 -1.96211,-0.19175 -7.402057,-2.82334 z"
       id="path3035"
       inkscape:connector-curvature="0"
       transform="matrix(0.80000001,0,0,-0.80000001,0,192.76)" /><path
       style="fill:#47b900;fill-opacity:1;stroke:#ffffff;stroke-width:0.51048726"
       d="m 133.58563,219.03687 c -10.05638,-1.76199 -18.35593,-3.28384 -18.44345,-3.3819 -0.0875,-0.0981 2.73995,-8.5936 6.28326,-18.87897 l 6.44239,-18.70068 4.08851,8.39141 4.08852,8.39142 5.61536,-3.82651 c 8.68978,-5.92153 13.62093,-10.05807 22.25205,-18.66635 14.5605,-14.52194 23.61421,-26.94173 31.31747,-42.96097 11.4506,-23.81197 12.9121,-45.0963 4.29835,-62.598333 -3.55635,-7.226066 -10.5684,-13.811697 -18.8609,-17.713947 -12.81125,-6.028659 -28.44712,-6.796382 -42.31998,-2.077918 -2.06301,0.701677 -3.826,1.200704 -3.91776,1.108951 -0.0917,-0.09175 1.26792,-1.325985 3.02148,-2.742736 8.32139,-6.72305 16.98901,-11.541552 25.64975,-14.259212 4.20539,-1.31961 5.26433,-1.44247 12.50694,-1.451063 6.8747,-0.0082 8.41474,0.146983 11.74121,1.182778 13.56038,4.22243 25.73779,15.370831 32.71026,29.946195 4.99198,10.435302 6.75645,18.2786 6.7757,30.118749 0.0308,18.958716 -5.55922,37.302656 -17.49079,57.396876 -14.23016,23.96531 -37.23284,45.89721 -59.33971,56.57743 -2.75137,1.32923 -5.00776,2.61529 -5.0142,2.8579 -0.006,0.2426 1.65376,3.44479 3.68933,7.11597 4.24519,7.65626 4.1805,7.5232 3.61595,7.4384 -0.23398,-0.0351 -8.65336,-1.50551 -18.70974,-3.26749 z"
       id="path3039"
       inkscape:connector-curvature="0"
       transform="matrix(0.80000001,0,0,-0.80000001,0,192.76)" /><path
       style="fill:#47b900;fill-opacity:1;stroke:#ffffff;stroke-width:0.51048726"
       d="m 57.68506,121.80226 c -0.945346,-0.94534 -1.020974,-1.70162 -1.020974,-10.20974 0,-8.65065 -0.05616,-9.18877 -0.959042,-9.18877 -1.320336,0 -2.385187,-2.604422 -1.636684,-4.003013 0.303981,-0.567995 1.012376,-1.178614 1.57421,-1.356934 0.796409,-0.252771 1.021516,-0.772197 1.021516,-2.357116 0,-2.349171 1.108821,-4.783009 2.52416,-5.540475 0.540171,-0.289092 2.15627,-0.525621 3.591331,-0.525621 2.089613,0 2.858722,0.249521 3.862215,1.253014 1.466401,1.466402 1.576273,2.434699 0.408741,3.60223 -0.602859,0.602859 -1.321326,0.754776 -2.512628,0.531287 -1.836141,-0.344462 -2.494189,0.213369 -2.018761,1.711312 0.189803,0.598017 0.984916,1.0903 2.098392,1.299189 2.362572,0.443221 3.280651,2.228634 2.084619,4.054007 -0.477759,0.72916 -1.42453,1.33082 -2.241984,1.42476 l -1.414994,0.1626 -0.255244,9.59129 c -0.206854,7.77296 -0.400412,9.68286 -1.020974,10.07431 -1.252383,0.78999 -2.994381,0.56719 -4.083899,-0.52233 z"
       id="path3043"
       inkscape:connector-curvature="0"
       transform="matrix(0.80000001,0,0,-0.80000001,0,192.76)" /><path
       style="fill:#47b900;fill-opacity:1;stroke:#ffffff;stroke-width:0.51048726"
       d="m 69.717975,122.02104 c -1.200123,-1.20012 -1.200123,-23.740822 0,-24.940945 1.04323,-1.043231 2.986612,-1.02436 4.050301,0.03933 0.781707,0.781707 0.966961,0.781707 2.606219,0 2.077962,-0.990911 3.423896,-1.060085 4.954162,-0.254615 1.469604,0.773539 1.863522,1.424723 1.87295,3.096162 0.0095,1.678308 -1.220092,2.442778 -3.928934,2.442778 -1.079058,0 -2.472475,0.3576 -3.096484,0.79468 -1.095813,0.76753 -1.134561,1.08737 -1.134561,9.36489 0,7.65437 -0.09976,8.6605 -0.933549,9.41507 -1.179174,1.06714 -3.344583,1.08818 -4.390104,0.0426 l 0,0 z"
       id="path3045"
       inkscape:connector-curvature="0"
       transform="matrix(0.80000001,0,0,-0.80000001,0,192.76)" /><path
       style="fill:#47b900;fill-opacity:1;stroke:#ffffff;stroke-width:0.51048726"
       d="m 90.033721,122.26775 c -2.158872,-0.62576 -5.106081,-4.00198 -5.825414,-6.67337 -0.761838,-2.82926 -0.728275,-8.72295 0.06768,-11.88396 0.876524,-3.481 3.596926,-6.122803 7.072514,-6.868183 3.618344,-0.775995 5.046483,-0.697385 7.49005,0.412284 3.698859,1.679721 5.766869,5.642159 5.798859,11.110989 0.0203,3.46396 -0.57927,3.7375 -8.191777,3.7375 -4.267751,0 -6.59987,0.18934 -6.59987,0.53583 0,1.24337 1.675538,3.62811 2.867557,4.08132 1.613669,0.61351 3.513768,0.16209 5.801606,-1.37834 3.046054,-2.05094 5.113984,-1.37333 5.113984,1.67575 0,3.99299 -7.688717,6.96221 -13.595185,5.25018 z m 7.979834,-16.73224 c 0,-1.61842 -1.967916,-3.64225 -3.541618,-3.64225 -1.912491,0 -4.115691,1.79611 -4.115691,3.35522 0,1.20175 0.115608,1.23917 3.828654,1.23917 3.396053,0 3.828655,-0.10759 3.828655,-0.95214 z"
       id="path3047"
       inkscape:connector-curvature="0"
       transform="matrix(0.80000001,0,0,-0.80000001,0,192.76)" /><path
       style="fill:#47b900;fill-opacity:1;stroke:#ffffff;stroke-width:0.51048726"
       d="m 113.91276,122.30852 c -5.27179,-2.2495 -7.56224,-8.25476 -6.20883,-16.27871 0.98671,-5.84984 3.81043,-8.877555 8.86888,-9.509566 5.09494,-0.636572 9.14897,1.411134 10.75871,5.434276 1.14211,2.85441 1.32681,8.99355 0.2903,9.64879 -0.42116,0.26623 -3.71956,0.48758 -7.32979,0.49188 l -6.56405,0.008 0.34277,1.40384 c 0.87456,3.58182 4.79992,4.5354 8.15031,1.97993 2.8403,-2.1664 5.40076,-1.59791 5.40076,1.19912 0,3.16047 -3.87495,5.67285 -9.18877,5.9577 -1.825,0.0978 -3.85912,-0.053 -4.52029,-0.33508 z m 7.69905,-17.32515 c -0.28035,-2.512 -2.79753,-3.79204 -5.45309,-2.773 -1.02269,0.39244 -2.47674,3.10028 -2.04227,3.80327 0.1823,0.29496 1.89029,0.45295 3.97714,0.36787 3.54334,-0.14445 3.65327,-0.18814 3.51822,-1.39814 l 0,0 z"
       id="path3049"
       inkscape:connector-curvature="0"
       transform="matrix(0.80000001,0,0,-0.80000001,0,192.76)" /><path
       style="fill:#47b900;fill-opacity:1;stroke:#ffffff;stroke-width:0.51048726"
       d="m 136.16764,129.7509 c -3.6191,-1.29143 -5.00363,-3.2172 -3.72071,-5.17519 0.94391,-1.44058 2.41148,-1.57897 5.05065,-0.47625 2.42292,1.01236 6.15882,0.99381 7.18833,-0.0357 0.86279,-0.86279 1.60724,-3.15884 1.16695,-3.59913 -0.14801,-0.14801 -1.01719,0.11774 -1.93151,0.59055 -2.17435,1.1244 -6.61411,0.8029 -8.53577,-0.61811 -2.45857,-1.81803 -3.76937,-4.89367 -4.05728,-9.51995 -0.3594,-5.77501 0.50781,-9.63071 2.64732,-11.770215 2.85594,-2.855942 7.70133,-3.540557 10.86803,-1.535567 1.02033,0.646022 1.25061,0.613612 2.16957,-0.305353 1.23332,-1.233319 2.44808,-1.304604 3.97742,-0.233407 1.12198,0.785859 1.13457,0.939082 1.13457,13.808502 0,14.35727 -0.097,14.87997 -3.20025,17.24694 -2.92129,2.22818 -8.92186,2.99152 -12.75732,1.62288 z m 8.25828,-14.54299 c 1.69435,-1.69435 1.9943,-9.01732 0.48698,-11.88884 -0.25158,-0.47926 -1.25965,-1.02189 -2.24017,-1.20583 -3.74285,-0.70217 -5.76014,2.70532 -5.15856,8.71355 0.24272,2.42412 0.5799,3.30247 1.61672,4.21152 1.60525,1.40743 3.9811,1.48352 5.29503,0.1696 l 0,0 z"
       id="path3051"
       inkscape:connector-curvature="0"
       transform="matrix(0.80000001,0,0,-0.80000001,0,192.76)" /><path
       style="fill:#47b900;fill-opacity:1;stroke:#ffffff;stroke-width:0.51048726"
       d="m 157.85415,122.02856 c -1.13013,-0.79158 -1.13453,-0.85482 -1.12674,-16.20797 0.004,-8.477311 0.17659,-15.666053 0.38286,-15.97498 0.88327,-1.322812 2.64655,-1.803526 4.08584,-1.113899 l 1.39408,0.667969 0.13512,15.76995 c 0.12109,14.13278 0.0466,15.86773 -0.71723,16.71178 -1.04142,1.15076 -2.64022,1.20739 -4.15393,0.14715 z"
       id="path3053"
       inkscape:connector-curvature="0"
       transform="matrix(0.80000001,0,0,-0.80000001,0,192.76)" /><path
       style="fill:#47b900;fill-opacity:1;stroke:#ffffff;stroke-width:0.51048726"
       d="m 173.36368,122.29313 c -4.05241,-1.21267 -6.49429,-5.66548 -6.50838,-11.86813 -0.0132,-5.81753 0.82943,-8.77665 3.16411,-11.111324 2.94199,-2.941991 8.12911,-3.829967 12.02856,-2.059155 3.699,1.679785 5.81134,5.882969 5.81134,11.563529 0,2.96248 -0.8054,3.28496 -8.20426,3.28496 -4.26775,0 -6.59987,0.18934 -6.59987,0.53583 0,1.24337 1.67554,3.62811 2.86756,4.08132 1.61367,0.61351 3.51377,0.16209 5.80161,-1.37834 3.04606,-2.05094 5.11399,-1.37333 5.11399,1.67575 0,3.95152 -7.75415,6.98741 -13.47466,5.27556 z m 7.8593,-16.75762 c 0,-1.61842 -1.96792,-3.64225 -3.54162,-3.64225 -1.91249,0 -4.11569,1.79611 -4.11569,3.35522 0,1.20175 0.11561,1.23917 3.82866,1.23917 3.39605,0 3.82865,-0.10759 3.82865,-0.95214 z"
       id="path3055"
       inkscape:connector-curvature="0"
       transform="matrix(0.80000001,0,0,-0.80000001,0,192.76)" /></g></svg>