<?xml version="1.0" encoding="UTF-8" standalone="no"?>
<!-- Created with Inkscape (http://www.inkscape.org/) -->

<svg
   xmlns:dc="http://purl.org/dc/elements/1.1/"
   xmlns:cc="http://creativecommons.org/ns#"
   xmlns:rdf="http://www.w3.org/1999/02/22-rdf-syntax-ns#"
   xmlns:svg="http://www.w3.org/2000/svg"
   xmlns="http://www.w3.org/2000/svg"
   xmlns:sodipodi="http://sodipodi.sourceforge.net/DTD/sodipodi-0.dtd"
   xmlns:inkscape="http://www.inkscape.org/namespaces/inkscape"
   id="svg3347"
   version="1.1"
   inkscape:version="0.91 r13725"
   xml:space="preserve"
   width="240.95"
   height="240.95"
   viewBox="0 0 240.95 240.95"
   sodipodi:docname="freegle logo rgb.svg"
   inkscape:export-filename="C:\temp\a.png"
   inkscape:export-xdpi="747.06"
   inkscape:export-ydpi="747.06"><metadata
     id="metadata3353"><rdf:RDF><cc:Work
         rdf:about=""><dc:format>image/svg+xml</dc:format><dc:type
           rdf:resource="http://purl.org/dc/dcmitype/StillImage" /><dc:title></dc:title></cc:Work></rdf:RDF></metadata><defs
     id="defs3351"><radialGradient
       fx="0"
       fy="0"
       cx="0"
       cy="0"
       r="1"
       gradientUnits="userSpaceOnUse"
       gradientTransform="matrix(96.37793,0,0,-96.37793,96.381836,96.37793)"
       spreadMethod="pad"
       id="radialGradient3369"><stop
         style="stop-opacity:1;stop-color:#47b900"
         offset="0"
         id="stop3371" /><stop
         style="stop-opacity:1;stop-color:#47b900"
         offset="0.26598501"
         id="stop3373" /><stop
         style="stop-opacity:1;stop-color:#325906"
         offset="1"
         id="stop3375" /></radialGradient><clipPath
       clipPathUnits="userSpaceOnUse"
       id="clipPath3383"><path
         d="m 0,192.76 192.76,0 L 192.76,0 0,0 0,192.76 Z"
         id="path3385"
         inkscape:connector-curvature="0" /></clipPath></defs><sodipodi:namedview
     pagecolor="#ffffff"
     bordercolor="#666666"
     borderopacity="1"
     objecttolerance="10"
     gridtolerance="10"
     guidetolerance="10"
     inkscape:pageopacity="0"
     inkscape:pageshadow="2"
     inkscape:window-width="1600"
     inkscape:window-height="838"
     id="namedview3349"
     showgrid="false"
     inkscape:zoom="1.9589127"
     inkscape:cx="-33.181674"
     inkscape:cy="120.475"
     inkscape:window-x="-8"
     inkscape:window-y="-8"
     inkscape:window-maximized="1"
     inkscape:current-layer="g3355" /><g
     id="g3355"
     inkscape:groupmode="layer"
     inkscape:label="freegle logo rgb"
     transform="matrix(1.25,0,0,-1.25,0,240.95)"><g
       id="g3357"><g
         id="g3359"><g
           id="g3365"><g
             id="g3367"><path
               d="m 17.012,192.756 c -9.394,0 -17.008,-7.615 -17.008,-17.008 l 0,0 0,-158.74 C 0.004,7.614 7.618,0 17.012,0 l 0,0 158.74,0 c 9.393,0 17.008,7.614 17.008,17.008 l 0,0 0,158.74 c 0,9.393 -7.615,17.008 -17.008,17.008 l 0,0 -158.74,0 z"
               style="fill:url(#radialGradient3369);stroke:none"
               id="path3377"
               inkscape:connector-curvature="0" /></g></g></g></g><g
       id="g3379"><g
         id="g3381"
         clip-path="url(#clipPath3383)"><g
           id="g3387"
           transform="translate(44.4888,115.3179)"><path
             d="M 0,0 0.301,0 C 0.527,0 0.64,0.126 0.64,0.377 l 0,1.807 c 0,1.481 0.426,2.635 1.28,3.463 C 2.773,6.475 4.003,6.89 5.609,6.89 6.965,6.89 8.019,6.619 8.772,6.081 9.525,5.54 9.901,4.869 9.901,4.066 9.901,3.815 9.85,3.507 9.748,3.144 9.646,2.779 9.41,2.472 9.039,2.221 8.668,1.97 8.227,1.845 7.716,1.845 7.384,1.845 7.09,1.907 6.835,2.033 L 6.529,2.259 C 6.4,2.358 6.248,2.409 6.069,2.409 5.838,2.409 5.698,2.28 5.647,2.021 l 0,-0.176 0,-0.235 0,-0.511 0.076,-0.471 C 5.799,0.209 5.976,0 6.255,0 l 0.951,0 c 0.633,0 1.173,-0.23 1.616,-0.691 0.444,-0.46 0.665,-1.015 0.665,-1.662 0,-0.25 -0.064,-0.561 -0.192,-0.934 -0.334,-0.92 -1.014,-1.381 -2.041,-1.381 l -0.77,0 c -0.257,0 -0.385,-0.114 -0.385,-0.34 l 0,-12.972 c 0,-2.019 -0.837,-3.027 -2.508,-3.027 -0.886,0 -1.598,0.264 -2.139,0.793 -0.542,0.528 -0.812,1.27 -0.812,2.226 l 0,13.018 0,0.264 -0.191,0.038 -0.192,0 c -0.791,-0.075 -1.365,0.376 -1.722,1.355 -0.128,0.427 -0.191,0.791 -0.191,1.092 0,0.602 0.175,1.123 0.527,1.563 C -0.779,-0.22 -0.401,0 0,0"
             style="fill:#ffffff;fill-opacity:1;fill-rule:nonzero;stroke:none"
             id="path3389"
             inkscape:connector-curvature="0" /></g><g
           id="g3391"
           transform="translate(54.8037,96.9839)"><path
             d="m 0,0 0,16.188 c 0,0.803 0.234,1.462 0.702,1.977 0.467,0.514 1.081,0.772 1.84,0.772 0.253,0 0.531,-0.038 0.834,-0.114 0.785,-0.225 1.265,-0.602 1.442,-1.129 l 0.076,-0.226 0,-0.113 0.151,0.151 0.188,0.15 0.151,0.114 0.225,0.188 c 0.578,0.4 1.168,0.677 1.77,0.828 0.2,0.025 0.395,0.057 0.583,0.094 0.189,0.038 0.395,0.057 0.622,0.057 0.853,0 1.586,-0.208 2.202,-0.622 0.614,-0.414 0.973,-0.865 1.073,-1.355 0.099,-0.49 0.151,-0.86 0.151,-1.111 0,-1.481 -1.036,-2.221 -3.105,-2.221 l -0.625,0 -0.549,0 -0.568,0 C 5.977,13.453 5.384,12.691 5.384,11.342 l 0,-0.525 0,-0.711 0,-10.194 c 0,-1.2 -0.49,-1.998 -1.468,-2.399 C 3.464,-2.661 3.012,-2.748 2.56,-2.748 1.782,-2.748 1.161,-2.491 0.696,-1.977 0.231,-1.462 0,-0.803 0,0"
             style="fill:#ffffff;fill-opacity:1;fill-rule:nonzero;stroke:none"
             id="path3393"
             inkscape:connector-curvature="0" /></g><g
           id="g3395"
           transform="translate(78.145,107.8267)"><path
             d="m 0,0 c 0.05,0.15 0.075,0.301 0.075,0.452 0,0.175 -0.013,0.325 -0.037,0.451 -0.101,0.753 -0.383,1.337 -0.848,1.75 -0.464,0.415 -1.072,0.622 -1.826,0.622 -0.276,0 -0.671,-0.057 -1.186,-0.17 C -4.336,2.993 -4.794,2.672 -5.196,2.146 L -5.422,1.807 C -5.472,1.706 -5.534,1.574 -5.61,1.411 -5.685,1.248 -5.748,1.065 -5.798,0.865 -5.823,0.765 -5.835,0.677 -5.835,0.602 l 0,-0.188 c 0,-0.201 0.05,-0.339 0.15,-0.414 L -5.196,0 -0.452,0 0,0 Z m 3.313,-4.819 -8.697,0 -0.489,0 C -5.949,-4.87 -5.986,-5.021 -5.986,-5.271 l 0,-0.263 c 0.099,-0.177 0.151,-0.315 0.151,-0.415 0,-0.126 0.048,-0.313 0.148,-0.565 0.524,-1.355 1.546,-2.032 3.067,-2.032 0.623,0 1.196,0.106 1.72,0.32 0.524,0.212 1.084,0.583 1.683,1.111 0.798,0.701 1.458,1.054 1.981,1.054 0.175,0 0.424,-0.026 0.748,-0.076 0.323,-0.051 0.672,-0.301 1.047,-0.754 0.374,-0.45 0.561,-1.015 0.561,-1.693 0,-1.004 -0.54,-1.958 -1.619,-2.861 -1.23,-1.029 -2.861,-1.681 -4.895,-1.958 -0.602,-0.075 -1.179,-0.113 -1.731,-0.113 -2.66,0 -4.731,0.891 -6.212,2.673 -1.481,1.781 -2.221,4.367 -2.221,7.755 0,0.853 0.062,1.883 0.189,3.088 0.25,2.233 0.946,4.009 2.089,5.327 1.142,1.318 2.641,2.139 4.499,2.465 0.828,0.151 1.618,0.227 2.371,0.227 2.284,0 4.122,-0.672 5.515,-2.015 1.394,-1.343 2.203,-3.181 2.429,-5.515 0.05,-0.352 0.088,-0.86 0.113,-1.525 0.024,-0.665 0.038,-1.01 0.038,-1.035 0,-1.13 -0.164,-1.87 -0.49,-2.221 C 4.869,-4.644 4.241,-4.819 3.313,-4.819"
             style="fill:#ffffff;fill-opacity:1;fill-rule:nonzero;stroke:none"
             id="path3397"
             inkscape:connector-curvature="0" /></g><g
           id="g3399"
           transform="translate(97.2314,107.8267)"><path
             d="m 0,0 c 0.05,0.15 0.075,0.301 0.075,0.452 0,0.175 -0.012,0.325 -0.038,0.451 -0.1,0.753 -0.383,1.337 -0.846,1.75 -0.465,0.415 -1.073,0.622 -1.826,0.622 -0.277,0 -0.672,-0.057 -1.186,-0.17 C -4.336,2.993 -4.794,2.672 -5.195,2.146 L -5.421,1.807 C -5.472,1.706 -5.534,1.574 -5.61,1.411 -5.685,1.248 -5.747,1.065 -5.798,0.865 -5.823,0.765 -5.835,0.677 -5.835,0.602 l 0,-0.188 c 0,-0.201 0.05,-0.339 0.15,-0.414 l 0.49,0 4.743,0 L 0,0 Z m 3.313,-4.819 -8.696,0 -0.49,0 C -5.948,-4.87 -5.986,-5.021 -5.986,-5.271 l 0,-0.263 c 0.1,-0.177 0.151,-0.315 0.151,-0.415 0,-0.126 0.049,-0.313 0.149,-0.565 0.524,-1.355 1.545,-2.032 3.066,-2.032 0.624,0 1.196,0.106 1.721,0.32 0.522,0.212 1.083,0.583 1.682,1.111 0.797,0.701 1.458,1.054 1.982,1.054 0.174,0 0.423,-0.026 0.747,-0.076 0.324,-0.051 0.673,-0.301 1.047,-0.754 0.374,-0.45 0.562,-1.015 0.562,-1.693 0,-1.004 -0.54,-1.958 -1.619,-2.861 -1.231,-1.029 -2.862,-1.681 -4.895,-1.958 -0.603,-0.075 -1.18,-0.113 -1.732,-0.113 -2.66,0 -4.73,0.891 -6.211,2.673 -1.481,1.781 -2.222,4.367 -2.222,7.755 0,0.853 0.063,1.883 0.189,3.088 0.25,2.233 0.947,4.009 2.089,5.327 1.142,1.318 2.641,2.139 4.499,2.465 0.828,0.151 1.619,0.227 2.371,0.227 2.285,0 4.123,-0.672 5.516,-2.015 1.392,-1.343 2.202,-3.181 2.428,-5.515 0.051,-0.352 0.087,-0.86 0.114,-1.525 0.025,-0.665 0.037,-1.01 0.037,-1.035 0,-1.13 -0.164,-1.87 -0.49,-2.221 C 4.87,-4.644 4.241,-4.819 3.313,-4.819"
             style="fill:#ffffff;fill-opacity:1;fill-rule:nonzero;stroke:none"
             id="path3401"
             inkscape:connector-curvature="0" /></g><g
           id="g3403"
           transform="translate(110.1436,104.6421)"><path
             d="m 0,0 c 0,-1.561 0.195,-2.682 0.587,-3.361 0.392,-0.681 1.029,-1.109 1.912,-1.285 0.354,-0.075 0.681,-0.113 0.985,-0.113 1.92,0 2.878,1.498 2.878,4.494 l 0,1.965 C 6.362,3.362 6.186,4.52 5.833,5.175 5.479,5.83 4.861,6.232 3.978,6.384 3.573,6.434 3.296,6.46 3.145,6.46 2.134,6.46 1.357,6.106 0.813,5.402 0.272,4.697 0,3.576 0,2.04 L 0,0.906 0,0 Z m 6.74,9.546 0.073,0.188 0.115,0.189 c 0.35,0.577 0.733,0.935 1.147,1.073 0.414,0.137 0.797,0.207 1.149,0.207 0.703,0 1.305,-0.252 1.806,-0.755 0.503,-0.504 0.754,-1.133 0.754,-1.888 l 0,-17.931 c 0,-2.189 -0.853,-3.92 -2.56,-5.19 -1.707,-1.272 -4.142,-1.907 -7.303,-1.907 -0.327,0 -0.653,0.026 -0.98,0.076 -0.326,0.051 -0.753,0.139 -1.28,0.264 -1.505,0.351 -2.616,0.815 -3.331,1.392 -0.716,0.578 -1.11,1.255 -1.185,2.032 0,0.704 0.256,1.306 0.774,1.808 0.516,0.502 1.089,0.702 1.718,0.603 0.529,-0.077 0.995,-0.189 1.397,-0.339 0.606,-0.277 1.127,-0.502 1.569,-0.678 0.44,-0.176 0.849,-0.288 1.227,-0.339 0.378,-0.05 0.78,-0.075 1.209,-0.075 0.377,0 0.642,0.013 0.794,0.037 0.805,0.126 1.397,0.353 1.774,0.679 0.377,0.326 0.631,0.802 0.755,1.43 l 0,0.338 0,0.603 0,0.452 -0.15,-0.15 -0.264,-0.152 -0.226,-0.15 -0.149,-0.075 c -0.88,-0.553 -2.022,-0.829 -3.427,-0.829 -0.452,0 -0.903,0.038 -1.355,0.114 -2.084,0.377 -3.633,1.394 -4.65,3.054 -1.016,1.66 -1.524,4.074 -1.524,7.242 0,2.891 0.362,5.054 1.092,6.487 0.728,1.433 1.906,2.501 3.539,3.206 1.054,0.427 2.083,0.641 3.087,0.641 1.655,0 2.999,-0.427 4.027,-1.28 L 6.552,9.734 6.74,9.546 Z"
             style="fill:#ffffff;fill-opacity:1;fill-rule:nonzero;stroke:none"
             id="path3405"
             inkscape:connector-curvature="0" /></g><g
           id="g3407"
           transform="translate(125.165,97.0596)"><path
             d="m 0,0 0,22.211 c 0,1.229 0.401,2.083 1.204,2.56 0.527,0.301 1.067,0.452 1.619,0.452 0.603,0 1.13,-0.157 1.581,-0.471 0.452,-0.314 0.741,-0.721 0.867,-1.223 0.024,-0.201 0.062,-0.389 0.112,-0.565 0.024,-0.151 0.038,-0.364 0.038,-0.64 l 0,-22.25 C 5.421,-1.18 4.906,-2.034 3.878,-2.485 3.526,-2.661 3.125,-2.749 2.673,-2.749 2.095,-2.749 1.568,-2.585 1.091,-2.26 0.615,-1.934 0.313,-1.563 0.188,-1.149 0.063,-0.734 0,-0.352 0,0"
             style="fill:#ffffff;fill-opacity:1;fill-rule:nonzero;stroke:none"
             id="path3409"
             inkscape:connector-curvature="0" /></g><g
           id="g3411"
           transform="translate(144.7041,107.8267)"><path
             d="m 0,0 c 0.05,0.15 0.074,0.301 0.074,0.452 0,0.175 -0.011,0.325 -0.036,0.451 -0.101,0.753 -0.384,1.337 -0.848,1.75 -0.464,0.415 -1.073,0.622 -1.826,0.622 -0.276,0 -0.672,-0.057 -1.186,-0.17 C -4.337,2.993 -4.795,2.672 -5.195,2.146 L -5.422,1.807 C -5.473,1.706 -5.534,1.574 -5.61,1.411 -5.686,1.248 -5.748,1.065 -5.798,0.865 -5.823,0.765 -5.836,0.677 -5.836,0.602 l 0,-0.188 c 0,-0.201 0.051,-0.339 0.15,-0.414 L -5.195,0 -0.453,0 0,0 Z m 3.313,-4.819 -8.698,0 -0.489,0 C -5.949,-4.87 -5.986,-5.021 -5.986,-5.271 l 0,-0.263 c 0.1,-0.177 0.15,-0.315 0.15,-0.415 0,-0.126 0.049,-0.313 0.149,-0.565 0.524,-1.355 1.545,-2.032 3.066,-2.032 0.624,0 1.196,0.106 1.722,0.32 0.522,0.212 1.083,0.583 1.681,1.111 0.798,0.701 1.458,1.054 1.983,1.054 0.173,0 0.422,-0.026 0.747,-0.076 0.323,-0.051 0.673,-0.301 1.047,-0.754 0.374,-0.45 0.56,-1.015 0.56,-1.693 0,-1.004 -0.54,-1.958 -1.619,-2.861 -1.229,-1.029 -2.86,-1.681 -4.894,-1.958 -0.602,-0.075 -1.179,-0.113 -1.732,-0.113 -2.659,0 -4.73,0.891 -6.211,2.673 -1.481,1.781 -2.222,4.367 -2.222,7.755 0,0.853 0.063,1.883 0.189,3.088 0.251,2.233 0.947,4.009 2.089,5.327 1.142,1.318 2.641,2.139 4.499,2.465 0.829,0.151 1.619,0.227 2.372,0.227 2.283,0 4.122,-0.672 5.514,-2.015 1.395,-1.343 2.204,-3.181 2.429,-5.515 0.05,-0.352 0.088,-0.86 0.113,-1.525 0.025,-0.665 0.039,-1.01 0.039,-1.035 0,-1.13 -0.164,-1.87 -0.49,-2.221 C 4.868,-4.644 4.241,-4.819 3.313,-4.819"
             style="fill:#ffffff;fill-opacity:1;fill-rule:nonzero;stroke:none"
             id="path3413"
             inkscape:connector-curvature="0" /></g><g
           id="g3415"
           transform="translate(44.4888,115.3179)"><path
             d="M 0,0 0.301,0 C 0.527,0 0.64,0.126 0.64,0.377 l 0,1.807 c 0,1.481 0.426,2.635 1.28,3.463 C 2.773,6.475 4.003,6.89 5.609,6.89 6.965,6.89 8.019,6.619 8.772,6.081 9.525,5.54 9.901,4.869 9.901,4.066 9.901,3.815 9.85,3.507 9.748,3.144 9.646,2.779 9.41,2.472 9.039,2.221 8.668,1.97 8.227,1.845 7.716,1.845 7.384,1.845 7.09,1.907 6.835,2.033 L 6.529,2.259 C 6.4,2.358 6.248,2.409 6.069,2.409 5.838,2.409 5.698,2.28 5.647,2.021 l 0,-0.176 0,-0.235 0,-0.511 0.076,-0.471 C 5.799,0.209 5.976,0 6.255,0 l 0.951,0 c 0.633,0 1.173,-0.23 1.616,-0.691 0.444,-0.46 0.665,-1.015 0.665,-1.662 0,-0.25 -0.064,-0.561 -0.192,-0.934 -0.334,-0.92 -1.014,-1.381 -2.041,-1.381 l -0.77,0 c -0.257,0 -0.385,-0.114 -0.385,-0.34 l 0,-12.972 c 0,-2.019 -0.837,-3.027 -2.508,-3.027 -0.886,0 -1.598,0.264 -2.139,0.793 -0.542,0.528 -0.812,1.27 -0.812,2.226 l 0,13.018 0,0.264 -0.191,0.038 -0.192,0 c -0.791,-0.075 -1.365,0.376 -1.722,1.355 -0.128,0.427 -0.191,0.791 -0.191,1.092 0,0.602 0.175,1.123 0.527,1.563 C -0.779,-0.22 -0.401,0 0,0"
             style="fill:#ffffff;fill-opacity:1;fill-rule:nonzero;stroke:none"
             id="path3417"
             inkscape:connector-curvature="0" /></g><g
           id="g3419"
           transform="translate(54.8037,96.9839)"><path
             d="m 0,0 0,16.188 c 0,0.803 0.234,1.462 0.702,1.977 0.467,0.514 1.081,0.772 1.84,0.772 0.253,0 0.531,-0.038 0.834,-0.114 0.785,-0.225 1.265,-0.602 1.442,-1.129 l 0.076,-0.226 0,-0.113 0.151,0.151 0.188,0.15 0.151,0.114 0.225,0.188 c 0.578,0.4 1.168,0.677 1.77,0.828 0.2,0.025 0.395,0.057 0.583,0.094 0.189,0.038 0.395,0.057 0.622,0.057 0.853,0 1.586,-0.208 2.202,-0.622 0.614,-0.414 0.973,-0.865 1.073,-1.355 0.099,-0.49 0.151,-0.86 0.151,-1.111 0,-1.481 -1.036,-2.221 -3.105,-2.221 l -0.625,0 -0.549,0 -0.568,0 C 5.977,13.453 5.384,12.691 5.384,11.342 l 0,-0.525 0,-0.711 0,-10.194 c 0,-1.2 -0.49,-1.998 -1.468,-2.399 C 3.464,-2.661 3.012,-2.748 2.56,-2.748 1.782,-2.748 1.161,-2.491 0.696,-1.977 0.231,-1.462 0,-0.803 0,0"
             style="fill:#ffffff;fill-opacity:1;fill-rule:nonzero;stroke:none"
             id="path3421"
             inkscape:connector-curvature="0" /></g><g
           id="g3423"
           transform="translate(78.145,107.8267)"><path
             d="m 0,0 c 0.05,0.15 0.075,0.301 0.075,0.452 0,0.175 -0.013,0.325 -0.037,0.451 -0.101,0.753 -0.383,1.337 -0.848,1.75 -0.464,0.415 -1.072,0.622 -1.826,0.622 -0.276,0 -0.671,-0.057 -1.186,-0.17 C -4.336,2.993 -4.794,2.672 -5.196,2.146 L -5.422,1.807 C -5.472,1.706 -5.534,1.574 -5.61,1.411 -5.685,1.248 -5.748,1.065 -5.798,0.865 -5.823,0.765 -5.835,0.677 -5.835,0.602 l 0,-0.188 c 0,-0.201 0.05,-0.339 0.15,-0.414 L -5.196,0 -0.452,0 0,0 Z m 3.313,-4.819 -8.697,0 -0.489,0 C -5.949,-4.87 -5.986,-5.021 -5.986,-5.271 l 0,-0.263 c 0.099,-0.177 0.151,-0.315 0.151,-0.415 0,-0.126 0.048,-0.313 0.148,-0.565 0.524,-1.355 1.546,-2.032 3.067,-2.032 0.623,0 1.196,0.106 1.72,0.32 0.524,0.212 1.084,0.583 1.683,1.111 0.798,0.701 1.458,1.054 1.981,1.054 0.175,0 0.424,-0.026 0.748,-0.076 0.323,-0.051 0.672,-0.301 1.047,-0.754 0.374,-0.45 0.561,-1.015 0.561,-1.693 0,-1.004 -0.54,-1.958 -1.619,-2.861 -1.23,-1.029 -2.861,-1.681 -4.895,-1.958 -0.602,-0.075 -1.179,-0.113 -1.731,-0.113 -2.66,0 -4.731,0.891 -6.212,2.673 -1.481,1.781 -2.221,4.367 -2.221,7.755 0,0.853 0.062,1.883 0.189,3.088 0.25,2.233 0.946,4.009 2.089,5.327 1.142,1.318 2.641,2.139 4.499,2.465 0.828,0.151 1.618,0.227 2.371,0.227 2.284,0 4.122,-0.672 5.515,-2.015 1.394,-1.343 2.203,-3.181 2.429,-5.515 0.05,-0.352 0.088,-0.86 0.113,-1.525 0.024,-0.665 0.038,-1.01 0.038,-1.035 0,-1.13 -0.164,-1.87 -0.49,-2.221 C 4.869,-4.644 4.241,-4.819 3.313,-4.819"
             style="fill:#ffffff;fill-opacity:1;fill-rule:nonzero;stroke:none"
             id="path3425"
             inkscape:connector-curvature="0" /></g><g
           id="g3427"
           transform="translate(97.2314,107.8267)"><path
             d="m 0,0 c 0.05,0.15 0.075,0.301 0.075,0.452 0,0.175 -0.012,0.325 -0.038,0.451 -0.1,0.753 -0.383,1.337 -0.846,1.75 -0.465,0.415 -1.073,0.622 -1.826,0.622 -0.277,0 -0.672,-0.057 -1.186,-0.17 C -4.336,2.993 -4.794,2.672 -5.195,2.146 L -5.421,1.807 C -5.472,1.706 -5.534,1.574 -5.61,1.411 -5.685,1.248 -5.747,1.065 -5.798,0.865 -5.823,0.765 -5.835,0.677 -5.835,0.602 l 0,-0.188 c 0,-0.201 0.05,-0.339 0.15,-0.414 l 0.49,0 4.743,0 L 0,0 Z m 3.313,-4.819 -8.696,0 -0.49,0 C -5.948,-4.87 -5.986,-5.021 -5.986,-5.271 l 0,-0.263 c 0.1,-0.177 0.151,-0.315 0.151,-0.415 0,-0.126 0.049,-0.313 0.149,-0.565 0.524,-1.355 1.545,-2.032 3.066,-2.032 0.624,0 1.196,0.106 1.721,0.32 0.522,0.212 1.083,0.583 1.682,1.111 0.797,0.701 1.458,1.054 1.982,1.054 0.174,0 0.423,-0.026 0.747,-0.076 0.324,-0.051 0.673,-0.301 1.047,-0.754 0.374,-0.45 0.562,-1.015 0.562,-1.693 0,-1.004 -0.54,-1.958 -1.619,-2.861 -1.231,-1.029 -2.862,-1.681 -4.895,-1.958 -0.603,-0.075 -1.18,-0.113 -1.732,-0.113 -2.66,0 -4.73,0.891 -6.211,2.673 -1.481,1.781 -2.222,4.367 -2.222,7.755 0,0.853 0.063,1.883 0.189,3.088 0.25,2.233 0.947,4.009 2.089,5.327 1.142,1.318 2.641,2.139 4.499,2.465 0.828,0.151 1.619,0.227 2.371,0.227 2.285,0 4.123,-0.672 5.516,-2.015 1.392,-1.343 2.202,-3.181 2.428,-5.515 0.051,-0.352 0.087,-0.86 0.114,-1.525 0.025,-0.665 0.037,-1.01 0.037,-1.035 0,-1.13 -0.164,-1.87 -0.49,-2.221 C 4.87,-4.644 4.241,-4.819 3.313,-4.819"
             style="fill:#ffffff;fill-opacity:1;fill-rule:nonzero;stroke:none"
             id="path3429"
             inkscape:connector-curvature="0" /></g><g
           id="g3431"
           transform="translate(110.1436,104.6421)"><path
             d="m 0,0 c 0,-1.561 0.195,-2.682 0.587,-3.361 0.392,-0.681 1.029,-1.109 1.912,-1.285 0.354,-0.075 0.681,-0.113 0.985,-0.113 1.92,0 2.878,1.498 2.878,4.494 l 0,1.965 C 6.362,3.362 6.186,4.52 5.833,5.175 5.479,5.83 4.861,6.232 3.978,6.384 3.573,6.434 3.296,6.46 3.145,6.46 2.134,6.46 1.357,6.106 0.813,5.402 0.272,4.697 0,3.576 0,2.04 L 0,0.906 0,0 Z m 6.74,9.546 0.073,0.188 0.115,0.189 c 0.35,0.577 0.733,0.935 1.147,1.073 0.414,0.137 0.797,0.207 1.149,0.207 0.703,0 1.305,-0.252 1.806,-0.755 0.503,-0.504 0.754,-1.133 0.754,-1.888 l 0,-17.931 c 0,-2.189 -0.853,-3.92 -2.56,-5.19 -1.707,-1.272 -4.142,-1.907 -7.303,-1.907 -0.327,0 -0.653,0.026 -0.98,0.076 -0.326,0.051 -0.753,0.139 -1.28,0.264 -1.505,0.351 -2.616,0.815 -3.331,1.392 -0.716,0.578 -1.11,1.255 -1.185,2.032 0,0.704 0.256,1.306 0.774,1.808 0.516,0.502 1.089,0.702 1.718,0.603 0.529,-0.077 0.995,-0.189 1.397,-0.339 0.606,-0.277 1.127,-0.502 1.569,-0.678 0.44,-0.176 0.849,-0.288 1.227,-0.339 0.378,-0.05 0.78,-0.075 1.209,-0.075 0.377,0 0.642,0.013 0.794,0.037 0.805,0.126 1.397,0.353 1.774,0.679 0.377,0.326 0.631,0.802 0.755,1.43 l 0,0.338 0,0.603 0,0.452 -0.15,-0.15 -0.264,-0.152 -0.226,-0.15 -0.149,-0.075 c -0.88,-0.553 -2.022,-0.829 -3.427,-0.829 -0.452,0 -0.903,0.038 -1.355,0.114 -2.084,0.377 -3.633,1.394 -4.65,3.054 -1.016,1.66 -1.524,4.074 -1.524,7.242 0,2.891 0.362,5.054 1.092,6.487 0.728,1.433 1.906,2.501 3.539,3.206 1.054,0.427 2.083,0.641 3.087,0.641 1.655,0 2.999,-0.427 4.027,-1.28 L 6.552,9.734 6.74,9.546 Z"
             style="fill:#ffffff;fill-opacity:1;fill-rule:nonzero;stroke:none"
             id="path3433"
             inkscape:connector-curvature="0" /></g><g
           id="g3435"
           transform="translate(125.165,97.0596)"><path
             d="m 0,0 0,22.211 c 0,1.229 0.401,2.083 1.204,2.56 0.527,0.301 1.067,0.452 1.619,0.452 0.603,0 1.13,-0.157 1.581,-0.471 0.452,-0.314 0.741,-0.721 0.867,-1.223 0.024,-0.201 0.062,-0.389 0.112,-0.565 0.024,-0.151 0.038,-0.364 0.038,-0.64 l 0,-22.25 C 5.421,-1.18 4.906,-2.034 3.878,-2.485 3.526,-2.661 3.125,-2.749 2.673,-2.749 2.095,-2.749 1.568,-2.585 1.091,-2.26 0.615,-1.934 0.313,-1.563 0.188,-1.149 0.063,-0.734 0,-0.352 0,0"
             style="fill:#ffffff;fill-opacity:1;fill-rule:nonzero;stroke:none"
             id="path3437"
             inkscape:connector-curvature="0" /></g><g
           id="g3439"
           transform="translate(144.7041,107.8267)"><path
             d="m 0,0 c 0.05,0.15 0.074,0.301 0.074,0.452 0,0.175 -0.011,0.325 -0.036,0.451 -0.101,0.753 -0.384,1.337 -0.848,1.75 -0.464,0.415 -1.073,0.622 -1.826,0.622 -0.276,0 -0.672,-0.057 -1.186,-0.17 C -4.337,2.993 -4.795,2.672 -5.195,2.146 L -5.422,1.807 C -5.473,1.706 -5.534,1.574 -5.61,1.411 -5.686,1.248 -5.748,1.065 -5.798,0.865 -5.823,0.765 -5.836,0.677 -5.836,0.602 l 0,-0.188 c 0,-0.201 0.051,-0.339 0.15,-0.414 L -5.195,0 -0.453,0 0,0 Z m 3.313,-4.819 -8.698,0 -0.489,0 C -5.949,-4.87 -5.986,-5.021 -5.986,-5.271 l 0,-0.263 c 0.1,-0.177 0.15,-0.315 0.15,-0.415 0,-0.126 0.049,-0.313 0.149,-0.565 0.524,-1.355 1.545,-2.032 3.066,-2.032 0.624,0 1.196,0.106 1.722,0.32 0.522,0.212 1.083,0.583 1.681,1.111 0.798,0.701 1.458,1.054 1.983,1.054 0.173,0 0.422,-0.026 0.747,-0.076 0.323,-0.051 0.673,-0.301 1.047,-0.754 0.374,-0.45 0.56,-1.015 0.56,-1.693 0,-1.004 -0.54,-1.958 -1.619,-2.861 -1.229,-1.029 -2.86,-1.681 -4.894,-1.958 -0.602,-0.075 -1.179,-0.113 -1.732,-0.113 -2.659,0 -4.73,0.891 -6.211,2.673 -1.481,1.781 -2.222,4.367 -2.222,7.755 0,0.853 0.063,1.883 0.189,3.088 0.251,2.233 0.947,4.009 2.089,5.327 1.142,1.318 2.641,2.139 4.499,2.465 0.829,0.151 1.619,0.227 2.372,0.227 2.283,0 4.122,-0.672 5.514,-2.015 1.395,-1.343 2.204,-3.181 2.429,-5.515 0.05,-0.352 0.088,-0.86 0.113,-1.525 0.025,-0.665 0.039,-1.01 0.039,-1.035 0,-1.13 -0.164,-1.87 -0.49,-2.221 C 4.868,-4.644 4.241,-4.819 3.313,-4.819"
             style="fill:#ffffff;fill-opacity:1;fill-rule:nonzero;stroke:none"
             id="path3441"
             inkscape:connector-curvature="0" /></g><g
           id="g3443"
           transform="translate(105.3594,152.8521)"><path
             d="M 0,0 C 31.889,29.569 57.332,14.995 69.094,-4.978 93.145,-45.822 54.478,-107.184 10.63,-126.229 l 6.642,-11.958 -31.003,5.315 10.63,30.896 6.644,-13.623 c 32.604,19.66 67.668,68.226 50.491,102.206 C 46.392,1.726 22.588,10.63 0,0"
             style="fill:#ffffff;fill-opacity:1;fill-rule:nonzero;stroke:none"
             id="path3445"
             inkscape:connector-curvature="0" /></g><g
           id="g3447"
           transform="translate(88.085,20.7598)"><path
             d="m 0,0 c -26.162,4.981 -70.671,47.691 -76.18,96.111 -5.581,49.045 29.74,66.915 62.007,46.948 l 4.872,15.059 14.616,-30.232 -29.216,-12.362 4.856,14.69 c -30.118,12.402 -44.48,1.072 -39.419,-33.66 C -55.084,73.358 -23.109,6.882 0,0"
             style="fill:#ffffff;fill-opacity:1;fill-rule:nonzero;stroke:none"
             id="path3449"
             inkscape:connector-curvature="0" /></g></g></g></g></svg>